<svg xmlns="http://www.w3.org/2000/svg" id="svg_cubeedit" width="48" height="48">
  <path id="background" stroke="#000" stroke-width="0.5" d="m 29.59,0.656 -6.717,1.03 0.01,2.398 -3.452,-1.87 -7.05,1.083 0.1,4.024 -0.22,0.04 -0.03,-1.39 L 8.771,3.861 1.34,5 l 0.345,7.706 3.238,2.41 1.644,-0.294 0.023,0.77 -4.74,0.89 0.323,7.37 3.18,2.692 1.61,-0.325 0.01,0.27 -4.634,0.97 0.31,7.07 3.12,2.96 1.57,-0.36 0.06,1.91 3.43,3.25 1.74,-0.43 0.05,2.12 h 0.004 l 3.78,3.58 7.67,-1.99 -0.006,-4.11 h 0.01 l -0.006,0.01 3.733,3.134 7.26,-1.89 0.074,-3.523 3.46,2.61 6.9,-1.79 0.303,-7.39 v -0.013 l -4.23,-2.76 4.423,-1 0.004,-0.025 0.323,-7.7 v -0.006 l -4.59,-2.647 -2.262,0.45 0.012,-0.349 7.003,-1.412 0.34,-8.1 -4.72,-2.3 -2.29,0.39 0.05,-1.483 -4.29,-2.09 -2.07,0.32 0.02,-1.316 z m 5.578,38.535 0.006,0.01 -0.006,0.01 z m 3.457,2.61 h 0.004 v 0.01 z" stroke-linecap="round" stroke-linejoin="round"/>
  <path id="green" fill="#00b000" d="m 29.59,0.656 -6.717,1.03 0.008,2.398 c -1.2,7.13 3.59,33.272 12.29,35.105 1.42,0.29 3.47,2.6 3.47,2.6 L 45.53,40 l 0.31,-7.395 -4.237,-2.76 4.39,-1.016 0.326,-7.74 -4.61,-2.63 -2.24,0.46 0.012,-0.349 6.998,-1.441 0.34,-8.1 -4.73,-2.3 -2.29,0.39 0.04,-1.5 -4.29,-2.09 -2.07,0.34 0.02,-1.33 z"/>
  <path id="green_light" fill="#00e300" d="M35.64 16.482l-.032 1.514 1.962-.39zm-.242 11.61l-.023 1.064 1.206-.272zM28.623 4.69l4.144 2.164 7.078-1.202-4.292-2.09zm6.318 3.3l4.57 2.386 7.31-1.327-4.72-2.31zm-.22 11.903l4.46 2.726 7.15-1.52-4.6-2.63zM22.88 1.687l3.77 1.97 6.86-1.094L29.59.656zM34.74 31.44l4.1 2.862 6.992-1.685-4.234-2.764-2.65.614-.25-.167-3.363.776z"/>
  <path id="green_dark" fill="#009000" d="M22.873 1.688l.007 4.48 3.76-.048.007-2.462zm5.75 3.002l-.017 2.495.405 2.08 3.72.154.04-2.57zm6.318 3.3l-.05 7.87.16.275 4.24 2.467.23-8.226zm.46 20.1l3.55 2.378.22-7.85-4.45-2.724-.05 2.97.75 5.227m-6.83-8.24l.2 1.97 3.78.11.04-2.56zm3.82 12.14l-.01 1.11-1.15-.83zm2.1-.48l-.06 3.08.74 4.62 3.47 2.61.21-7.49-4.1-2.86z"/>
  <path id="blue" fill="#0000b0" d="M19.432 2.215l-7.057 1.082.096 4.023c3.37 31.23 7.59 28.898 11.62 34.145l3.74 3.137 7.27-1.887.16-7.55-4.03-2.91 4.11-.95.17-7.91-4.37-2.772-2.09.424v-.373l6.55-1.324.17-8.29-4.48-2.433L29.12 9l.013-1.53-4.065-2.2-1.933.314-.004-1.365z"/>
  <path id="blue_light" fill="#0000e3" d="M24.054 18.332l.003 1.958 2.3-.456zm.018 11.833l.002 1.547 1.587-.36zm-.33-8.046l4.204 2.87 7.55-1.6-4.376-2.78zm-.028-12.19l4.31 2.52 7.73-1.4-4.486-2.44zM17.77 6.45l3.9 2.28 7.47-1.267-4.064-2.2zm-5.39-3.16l3.54 2.073 7.218-1.15-.248-.137-3.45-1.87zm11.7 30.38v.232l3.8 3.036 7.375-1.776-4.03-2.912-3.32.77-.238-.178z"/>
  <path id="blue_dark" fill="#000090" d="M23.74 22.12l.01 3.474.322 4.57 3.826 2.86.05-8.027zm-.026-12.182l.007 3.047.34 5.347 3.92 2.554.05-8.425zm-11.34-6.64l.096 4.023 3.494.93-.048-2.88-3.54-2.07m5.395 3.16l.04 2.92.05 1.58 3.84.79-.02-3zm3.99 17.72l-.01-2.03-3.73.76.01.39zm-1.47 10.61l1.55 1.25-.01-1.6-1.53.36m3.48-.8l.01 3.63.32 3.86 3.74 3.14.05-7.65-3.79-3.03z"/>
  <path id="red" fill="#b00000" d="M8.758 3.852L1.334 4.99l.344 7.705 3.238 2.397 1.643-.29.02.81-4.74.85.33 7.376 3.18 2.693 1.6-.32.01.3-4.64.95.31 7.07 3.12 2.96 1.57-.36.06 1.91 3.43 3.25 1.74-.42.053 2.13 3.78 3.58 7.67-1.99-.013-7.71-3.79-3.07 3.79-.88-.016-8.09-4.11-2.93-1.93.39v-.38l6.046-1.22-.01-8.49-4.215-2.57-1.975.35-.02-1.57-.02-.01L14 7.1l-1.78.29-.03-1.394z"/>
  <path id="red_light" fill="#e30000" d="M16 35.54l-3.545.818 3.836 3.376 7.8-1.877-3.79-3.072-4.07.942zm-3.69-4.968l-5.154 1.12 3.475 3.06 3.51-.792-1.82-3.388m-5.34-4.076l-4.63.952 3.16 2.785 3.38-.72zm11.04-3.216l-5.86 1.19 3.92 3.042 7.99-1.692-4.11-2.932zm-5.99-4.013l-5.27 1.005 3.55 2.752 4.21-.836zM6.59 15.61l-4.742.853 3.22 2.5 4.054-.758zM11.848 12l4.008 2.67 8.19-1.484-4.214-2.573zM6.33 8.32l3.615 2.41 7.887-1.34-3.806-2.323zM1.336 4.99L4.61 7.176l7.603-1.213-3.456-2.11z"/>
  <path id="red_dark" fill="#900000" d="M12.455 36.358l.19 7.62 3.782 3.58-.136-7.823zm-5.3-4.666l.26 7.335 3.43 3.248-.214-7.523zm-4.82-4.244l.315 7.067 3.128 2.962-.28-7.244zm9.823-2.98l.2 8.016L16 35.54l.22.187-.14-8.215zm-5.406-4.195l.27 7.67 3.5 2.96-.226-7.88-3.544-2.75M2.174 23.84l3.182 2.692-.29-7.57-3.22-2.5zm9.673-11.842l.182 7.27.02 1.11 2.44 1.81L16 23.303l-.15-8.633zM6.33 8.32l.284 8.03 3.567 2.64-.23-8.26-3.62-2.41M1.34 4.99l.343 7.705 3.234 2.398-.305-7.918z"/>
</svg>
